<svg width="16" height="16" xmlns="http://www.w3.org/2000/svg" class="prefix__default-ltr-cache-4z3qvp prefix__e1svuwfo1" data-name="Languages" aria-labelledby=":R135dajalalbd:" aria-hidden="true"><path fill-rule="evenodd" clip-rule="evenodd" d="M10.767 5.333l-.263.664L9.34 8.935l-.571 1.442L7.333 14h1.775l.727-1.967h3.587l.74 1.967H16l-3.434-8.667h-1.799zm-.148 4.602l-.235.628h2.502l-1.251-3.35-1.016 2.722zM9.527 4.842c.027-.067.059-.132.095-.192H6.42V2H4.926v2.65H.541v1.347h3.774C3.35 7.79 1.752 9.515 0 10.428c.33.286.811.811 1.046 1.165 1.505-.913 2.857-2.364 3.88-4.02v5.094h1.493v-5.15c.4.636.848 1.245 1.333 1.806L8.32 7.89a11.493 11.493 0 01-1.337-1.893H9.07l.457-1.155z" fill="white"/></svg>